<?xml version="1.0" standalone="no"?>
<!DOCTYPE svg PUBLIC "-//W3C//DTD SVG 20010904//EN"
 "http://www.w3.org/TR/2001/REC-SVG-20010904/DTD/svg10.dtd">
<svg version="1.0" xmlns="http://www.w3.org/2000/svg"
 width="640.000000pt" height="640.000000pt" viewBox="0 0 640.000000 640.000000"
 preserveAspectRatio="xMidYMid meet">
<metadata>
Created by potrace 1.15, written by Peter Selinger 2001-2017
</metadata>
<g transform="translate(0.000000,640.000000) scale(0.100000,-0.100000)"
fill="#000000" stroke="none">
<path d="M1983 4651 c-100 -34 -180 -108 -225 -207 l-23 -49 0 -1195 0 -1195
27 -57 c34 -74 112 -152 186 -186 l57 -27 1195 0 1195 0 57 27 c74 34 152 112
186 186 l27 57 0 1195 0 1195 -27 57 c-34 74 -112 152 -186 186 l-57 27 -1180
2 c-1115 2 -1183 2 -1232 -16z m1175 -538 l-3 -166 -61 -13 c-169 -34 -324
-184 -370 -358 -11 -41 -14 -192 -14 -753 l0 -703 -181 0 -180 0 4 728 c4 792
2 770 63 914 71 168 212 323 384 421 80 46 241 92 333 96 l27 1 -2 -167z m270
136 c276 -73 519 -318 594 -597 28 -107 28 -306 0 -412 -40 -149 -107 -266
-216 -374 -117 -117 -262 -189 -442 -221 -106 -19 -402 -31 -496 -21 l-68 8 0
163 0 164 203 -6 c168 -5 216 -3 286 11 145 30 244 93 316 202 61 91 78 153
78 279 0 126 -17 188 -78 280 -70 105 -199 195 -301 211 l-44 6 0 170 0 169
48 -6 c26 -4 80 -15 120 -26z"/>
</g>
</svg>
